<svg xmlns="http://www.w3.org/2000/svg" viewBox="0 0 148.85 125.08"><defs><style>.cls-1{fill:#036eb8;}.cls-1,.cls-2{opacity:0.7;}.cls-2,.cls-3{fill:#ea5514;}.cls-3{opacity:0.5;}</style></defs><g id="图层_2" data-name="图层 2"><g id="图层_4" data-name="图层 4"><path class="cls-1" d="M86,0h0a5.12,5.12,0,0,0-.56,0H22.12a4.84,4.84,0,0,0,0,9.67s64.35,0,64.61-.07A52.92,52.92,0,0,1,86,115.46a4.81,4.81,0,1,0,0,9.62c34.67,0,62.88-28.06,62.88-62.54S120.64,0,86,0Z"/><rect class="cls-1" x="44.25" y="19.04" width="9.67" height="106.04" rx="4.83"/><rect class="cls-2" x="66.37" y="33.4" width="9.67" height="77.33" rx="4.83"/><rect class="cls-2" x="22.12" y="33.4" width="9.67" height="77.33" rx="4.83"/><rect class="cls-3" x="88.5" y="52.73" width="9.67" height="38.66" rx="4.83"/><rect class="cls-3" y="52.73" width="9.67" height="38.66" rx="4.83"/></g></g></svg>